<?xml version="1.0" encoding="UTF-8"?> <svg xmlns="http://www.w3.org/2000/svg" xmlns:xlink="http://www.w3.org/1999/xlink" width="14px" height="19px" viewBox="0 0 14 19"><!-- Generator: Sketch 63.1 (92452) - https://sketch.com --><title>icons/sinch/menu/billing copy 12</title><desc>Created with Sketch.</desc><defs><path d="M7,11 L8,11 C8,13.2 9.8,15 12,15 C14.2,15 16,13.2 16,11 L17,11 C17,13.757 14.757,16 12,16 C9.243,16 7,13.757 7,11 L7,11 Z M10,7 C10,5.897 10.897,5 12,5 C13.103,5 14,5.897 14,7 L14,11 C14,12.103 13.103,13 12,13 C10.897,13 10,12.103 10,11 L10,7 Z M19,11 L19,9 L17,9 L16,9 L16,7 C16,4.8 14.2,3 12,3 C9.8,3 8,4.8 8,7 L8,9 L7,9 L6,9 L5,9 L5,11 C5,14.52 7.613,17.433 11,17.92 L11,20 L7,20 L7,22 L11,22 L13,22 L17,22 L17,20 L13,20 L13,17.92 C16.387,17.433 19,14.52 19,11 L19,11 Z" id="path-1"></path></defs><g id="Icons" stroke="none" stroke-width="1" fill="none" fill-rule="evenodd"><g id="icons" transform="translate(-1118.000000, -1425.000000)"><g id="Menu-Icons" transform="translate(64.000000, 1346.000000)"><g id="icons/sinch/menu/voice" transform="translate(1049.000000, 76.000000)"><mask id="mask-2" fill="white"><use xlink:href="#path-1"></use></mask><use id="Fill-1" fill="#333F48" fill-rule="evenodd" xlink:href="#path-1"></use><g id="Colors/Primary-Colors/Stormy-Blue/100" mask="url(#mask-2)" fill="#333F48" fill-rule="evenodd"><rect id="Stormy-Blue" x="0" y="0" width="24" height="24"></rect></g></g></g></g></g></svg> 