<?xml version="1.0" encoding="UTF-8"?> <svg xmlns="http://www.w3.org/2000/svg" xmlns:xlink="http://www.w3.org/1999/xlink" width="20px" height="21px" viewBox="0 0 20 21"><!-- Generator: Sketch 63.1 (92452) - https://sketch.com --><title>icons/sinch/menu/billing copy 7</title><desc>Created with Sketch.</desc><defs><path d="M12.75,8 L8,5.5 L8,10.5 L12.75,8 Z M14,2 C15.657,2 17,3.343 17,5 L17,11 C17,12.657 15.657,14 14,14 L9.375,14 L5,16.5 L5,14 C3.343,14 2,12.657 2,11 L2,5 C2,3.343 3.343,2 5,2 L14,2 Z M14,4 L5,4 C4.449,4 4,4.449 4,5 L4,11 C4,11.551 4.449,12 5,12 L7,12 L7,13.054 L8.382,12.264 L8.844,12 L9.375,12 L14,12 C14.551,12 15,11.551 15,11 L15,5 C15,4.449 14.551,4 14,4 L14,4 Z M22,11 L22,17 C22,18.657 20.657,20 19,20 L19,22.5 L14.625,20 L10,20 C8.343,20 7,18.657 7,17 L7,16.509 L9,15.366 L9,17 C9,17.552 9.449,18 10,18 L14.625,18 L15.156,18 L15.617,18.264 L17,19.054 L17,18 L19,18 C19.551,18 20,17.552 20,17 L20,11 C20,10.449 19.551,10 19,10 L18,10 L18,8 L19,8 C20.656,8 22,9.343 22,11 L22,11 Z" id="path-1"></path></defs><g id="Developer-pages" stroke="none" stroke-width="1" fill="none" fill-rule="evenodd"><g id="developer-overview-page" transform="translate(-473.000000, -1218.000000)"><g id="icons/sinch/menu/rcs" transform="translate(471.000000, 1216.000000)"><mask id="mask-2" fill="white"><use xlink:href="#path-1"></use></mask><use id="Fill-1" fill="#333F48" fill-rule="evenodd" xlink:href="#path-1"></use><g id="Colors/Primary-Colors/Stormy-Blue/100" mask="url(#mask-2)" fill="#333F48" fill-rule="evenodd"><rect id="Stormy-Blue" x="0" y="0" width="24" height="24"></rect></g></g></g></g></svg> 