<?xml version="1.0" encoding="UTF-8"?> <svg xmlns="http://www.w3.org/2000/svg" xmlns:xlink="http://www.w3.org/1999/xlink" width="16px" height="20px" viewBox="0 0 16 20"><!-- Generator: Sketch 63.1 (92452) - https://sketch.com --><title>icons/sinch/menu/billing copy 11</title><desc>Created with Sketch.</desc><defs><path d="M9.5044,17 L7.5044,17 L7.5044,15.5 C7.5044,13.85 8.8544,12.5 10.5044,12.5 L12.0004,12.5 L13.5044,12.5 C15.1544,12.5 16.5044,13.85 16.5044,15.5 L16.5044,17 L14.5044,17 L14.5044,15.5 C14.5044,14.958 14.0464,14.5 13.5044,14.5 L10.5044,14.5 C9.9624,14.5 9.5044,14.958 9.5044,15.5 L9.5044,17 Z M12.0004,12.5 C10.6194,12.5 9.5004,11.381 9.5004,10 C9.5004,8.619 10.6194,7.5 12.0004,7.5 C13.3804,7.5 14.5004,8.619 14.5004,10 C14.5004,11.381 13.3804,12.5 12.0004,12.5 L12.0004,12.5 Z M18.0004,19 C18.0004,19.552 17.5514,20 17.0004,20 L7.0004,20 C6.4484,20 6.0004,19.552 6.0004,19 L6.0004,5 C6.0004,4.449 6.4484,4 7.0004,4 L8.5004,4 C8.5004,4.552 8.9474,5 9.5004,5 L14.5004,5 C15.0524,5 15.5004,4.552 15.5004,4 L17.0004,4 C17.5514,4 18.0004,4.449 18.0004,5 L18.0004,19 Z M17.0004,2 L7.0004,2 C5.3434,2 4.0004,3.343 4.0004,5 L4.0004,19 C4.0004,20.657 5.3434,22 7.0004,22 L17.0004,22 C18.6574,22 20.0004,20.657 20.0004,19 L20.0004,5 C20.0004,3.343 18.6574,2 17.0004,2 L17.0004,2 Z" id="path-1"></path></defs><g id="Developer-pages" stroke="none" stroke-width="1" fill="none" fill-rule="evenodd"><g id="developer-overview-page" transform="translate(-190.000000, -1218.000000)"><g id="icons/sinch/menu/video" transform="translate(186.000000, 1216.000000)"><mask id="mask-2" fill="white"><use xlink:href="#path-1"></use></mask><use id="Fill-1" fill="#333F48" fill-rule="evenodd" xlink:href="#path-1"></use><g id="Colors/Primary-Colors/Stormy-Blue/100" mask="url(#mask-2)" fill="#333F48" fill-rule="evenodd"><rect id="Stormy-Blue" x="0" y="0" width="24" height="24"></rect></g></g></g></g></svg> 