<?xml version="1.0" encoding="UTF-8"?> <svg xmlns="http://www.w3.org/2000/svg" xmlns:xlink="http://www.w3.org/1999/xlink" width="20px" height="18px" viewBox="0 0 20 18"><!-- Generator: Sketch 63.1 (92452) - https://sketch.com --><title>icons/sinch/menu/billing</title><desc>Created with Sketch.</desc><defs><path d="M18.5,12 C18.5,12.829 17.828,13.5 17,13.5 C16.172,13.5 15.5,12.829 15.5,12 C15.5,11.171 16.172,10.5 17,10.5 C17.828,10.5 18.5,11.171 18.5,12 L18.5,12 Z M20,14 C20,14.551 19.552,15 19,15 L15,15 C14.449,15 14,14.551 14,14 L14,10 C14,9.449 14.449,9 15,9 L19,9 C19.552,9 20,9.449 20,10 L20,14 Z M18,18 C18,18.552 17.552,19 17,19 L5,19 C4.449,19 4,18.552 4,18 L4,6 C4,5.449 4.449,5 5,5 L17,5 C17.552,5 18,5.449 18,6 L18,7 L15,7 C13.343,7 12,8.343 12,10 L12,14 C12,15.657 13.343,17 15,17 L18,17 L18,18 Z M20,7.184 L20,6 C20,4.343 18.657,3 17,3 L5,3 C3.343,3 2,4.343 2,6 L2,18 C2,19.657 3.343,21 5,21 L17,21 C18.657,21 20,19.657 20,18 L20,16.816 C21.162,16.403 22,15.304 22,14 L22,10 C22,8.696 21.162,7.597 20,7.184 L20,7.184 Z" id="path-1"></path></defs><g id="Developer-pages" stroke="none" stroke-width="1" fill="none" fill-rule="evenodd"><g id="developer-overview-page" transform="translate(-473.000000, -1523.000000)"><g id="icons/sinch/menu/billing" transform="translate(471.000000, 1520.000000)"><mask id="mask-2" fill="white"><use xlink:href="#path-1"></use></mask><use id="Fill-1" fill="#333F48" fill-rule="evenodd" xlink:href="#path-1"></use><g id="Colors/Primary-Colors/Stormy-Blue/100" mask="url(#mask-2)" fill="#333F48" fill-rule="evenodd"><rect id="Stormy-Blue" x="0" y="0" width="24" height="24"></rect></g></g></g></g></svg> 