<?xml version="1.0" encoding="UTF-8"?> <svg xmlns="http://www.w3.org/2000/svg" xmlns:xlink="http://www.w3.org/1999/xlink" width="69px" height="69px" viewBox="0 0 69 69"><!-- Generator: Sketch 63.1 (92452) - https://sketch.com --><title>icons/sinch/base/Product Icon Copy 2</title><desc>Created with Sketch.</desc><defs><circle id="path-1" cx="34.8947368" cy="34.8947368" r="34.1052632"></circle><path d="M45.545,12 C47.451,12 49,13.537 49,15.428 L49,38.572 C49,40.463 47.45,42.001 45.545,42.001 L27.743,42.001 L17.91,47.482 L17.91,42 L14.455,42 C12.549,42 11,40.462 11,38.571 L11,15.428 C11,13.538 12.55,12 14.455,12 L45.545,12 Z M45.545,13.714 L14.455,13.714 C13.502,13.714 12.727,14.483 12.727,15.428 L12.727,38.572 C12.727,39.518 13.502,40.286 14.455,40.286 L19.636,40.286 L19.636,44.554 L27.291,40.286 L45.545,40.286 C46.498,40.286 47.273,39.518 47.273,38.572 L47.273,15.428 C47.273,14.483 46.498,13.714 45.545,13.714 Z M30.5,18.482 L43,23.949 L36.91,26.645 L36.91,33.052 L36.65,33.304 C34.8721733,35.0391094 32.4841921,36.0068702 30,35.9990476 C27.5127838,36.0068347 25.1220524,35.0371825 23.343,33.299 L23.084,33.046 L23.09,26.202 L21,25.277 L21,33.482 L19,33.482 L19,24.482 L19.205,24.482 L18,23.949 L30.5,18.482 Z M24.816,26.966 L24.812,32.316 C26.2392834,33.5897568 28.0870028,34.2910212 30,34.2850385 C31.9101353,34.290163 33.7551211,33.5909056 35.182,32.321 L35.182,27.409 L30.5,29.482 L24.816,26.966 Z M30.5,20.404 L22.37,23.96 L30.5,27.559 L38.63,23.96 L30.5,20.404 Z" id="path-3"></path></defs><g id="Developer-pages" stroke="none" stroke-width="1" fill="none" fill-rule="evenodd"><g id="developer-overview-page" transform="translate(-1064.000000, -500.000000)"><g id="Group-3" transform="translate(922.000000, 500.000000)"><g id="icons/sinch/base/Product-Icon-Copy-2" transform="translate(142.000000, 0.000000)"><g id="Group"><mask id="mask-2" fill="white"><use xlink:href="#path-1"></use></mask><use id="Mask" fill="#B8DDE1" fill-rule="nonzero" xlink:href="#path-1"></use><g id="Icon_Base_Color" mask="url(#mask-2)" fill="#B9E47B"><g transform="translate(-3.000000, -3.000000)" id="Ash-Blue"><rect x="0" y="0" width="75.7894737" height="75.7894737"></rect></g></g></g><g id="icons/sinch/Other/Tutorial_Icon" transform="translate(5.000000, 5.000000)"><mask id="mask-4" fill="white"><use xlink:href="#path-3"></use></mask><use id="Mask" fill="#333F48" fill-rule="nonzero" xlink:href="#path-3"></use><g id="Colors/Primary-Colors/Stormy-Blue/100" mask="url(#mask-4)" fill="#333F48" fill-rule="evenodd"><g transform="translate(-6.000000, -6.000000)" id="Stormy-Blue"><rect x="0" y="0" width="72" height="72"></rect></g></g></g></g></g></g></g></svg> 