<?xml version="1.0" encoding="UTF-8"?> <svg xmlns="http://www.w3.org/2000/svg" xmlns:xlink="http://www.w3.org/1999/xlink" width="70px" height="70px" viewBox="0 0 70 70"><!-- Generator: Sketch 63.1 (92452) - https://sketch.com --><title>icons/sinch/base/Product Icon Copy 2</title><desc>Created with Sketch.</desc><defs><circle id="path-1" cx="35" cy="35" r="34.1052632"></circle><path d="M45.545,12 C47.451,12 49,13.538 49,15.428 L49,38.572 C49,40.463 47.45,42.001 45.545,42.001 L27.743,42.001 L17.91,47.482 L17.909,47.482 L17.909,42 L14.454,42 C12.55,42 11,40.462 11,38.571 L11,15.428 C11,13.538 12.55,12 14.454,12 L45.545,12 Z M45.545,13.714 L14.454,13.714 C13.502,13.714 12.727,14.483 12.727,15.428 L12.727,38.572 C12.727,39.518 13.502,40.287 14.454,40.287 L19.636,40.287 L19.636,44.554 L27.291,40.287 L45.545,40.287 C46.498,40.287 47.273,39.517 47.273,38.572 L47.273,15.428 C47.273,14.483 46.498,13.714 45.545,13.714 Z M30.952,19.482 L32,19.708 L29.063,31.482 L28,31.256 L30.952,19.482 Z M26.8815934,23.5247908 C26.9551856,23.5725754 26.9997117,23.6542555 26.999997,23.742 L26.999997,24.918 C26.999997,25.02 26.94,25.114 26.846,25.155 L22.186,27.244 C22.0922168,27.2857781 22.0318005,27.3788321 22.0318005,27.4815 C22.0318005,27.5841679 22.0922168,27.6772219 22.186,27.719 L26.846,29.808 C26.9400462,29.8497066 27.0004914,29.9431219 26.999997,30.046 L26.999997,31.221 C26.999997,31.308922 26.9556599,31.3909128 26.8820115,31.4389356 C26.808363,31.4869585 26.7154334,31.494507 26.635,31.459 L19.154,28.121 C19.0599538,28.0792934 18.9995086,27.9858781 18.999997,27.883 L18.999997,27.08 C18.999997,26.977 19.06,26.883 19.154,26.842 L26.635,23.505 C26.7152713,23.469564 26.8080011,23.4770062 26.8815934,23.5247908 Z M33.365,23.505 L40.846,26.842 C40.939871,26.8839115 41.0002328,26.9771978 40.9999979,27.08 L40.9999979,27.883 C41.0002328,27.9858022 40.939871,28.0790885 40.846,28.121 L33.365,31.459 C33.2847287,31.494436 33.1919989,31.4869938 33.1184066,31.4392092 C33.0448144,31.3914246 33.0002883,31.3097445 32.9999979,31.222 L32.9999979,30.047 C32.9995909,29.9444327 33.0595198,29.8512099 33.153,29.809 L37.814,27.72 C37.9071819,27.6779636 37.9670841,27.5852249 37.9670841,27.483 C37.9670841,27.3807751 37.9071819,27.2880364 37.814,27.246 L33.154,25.156 C33.0601113,25.1146454 32.9996464,25.0215922 32.9999979,24.919 L32.9999979,23.742 C33.0002883,23.6542555 33.0448144,23.5725754 33.1184066,23.5247908 C33.1919989,23.4770062 33.2847287,23.469564 33.365,23.505 Z" id="path-3"></path></defs><g id="Developer-pages" stroke="none" stroke-width="1" fill="none" fill-rule="evenodd"><g id="developer-overview-page" transform="translate(-684.000000, -500.000000)"><g id="icons/sinch/base/Product-Icon-Copy-2" transform="translate(684.000000, 500.000000)"><mask id="mask-2" fill="white"><use xlink:href="#path-1"></use></mask><use id="Mask" fill="#B8DDE1" fill-rule="nonzero" xlink:href="#path-1"></use><g id="Icon_Base_Color" mask="url(#mask-2)" fill="#FDC0CC"><g transform="translate(-2.894737, -2.894737)" id="Ash-Blue"><rect x="0" y="0" width="75.7894737" height="75.7894737"></rect></g></g><g id="icons/sinch/Other/SDK_Icon" mask="url(#mask-2)"><g transform="translate(5.000000, 5.000000)"><mask id="mask-4" fill="white"><use xlink:href="#path-3"></use></mask><use id="Mask" stroke="none" fill="#333F48" fill-rule="nonzero" xlink:href="#path-3"></use><g id="Colors/Primary-Colors/Stormy-Blue/100" stroke="none" fill="none" mask="url(#mask-4)" fill-rule="evenodd"><g transform="translate(-6.000000, -6.000000)" fill="#333F48" id="Stormy-Blue"><rect x="0" y="0" width="72" height="72"></rect></g></g></g></g></g></g></g></svg> 