<?xml version="1.0" encoding="UTF-8"?> <svg xmlns="http://www.w3.org/2000/svg" xmlns:xlink="http://www.w3.org/1999/xlink" width="18px" height="20px" viewBox="0 0 18 20"><!-- Generator: Sketch 63.1 (92452) - https://sketch.com --><title>icons/sinch/menu/billing copy 10</title><desc>Created with Sketch.</desc><defs><path d="M8.707,10.3931 L7.293,11.8071 L12,16.5151 L21.467,7.0481 L20.053,5.6341 L12,13.6861 L8.707,10.3931 Z M18,11.9281 L20,9.9281 L20,19.0001 C20,20.6571 18.657,22.0001 17,22.0001 L7,22.0001 C5.343,22.0001 4,20.6571 4,19.0001 L4,5.0001 C4,3.3431 5.343,2.0001 7,2.0001 L17,2.0001 C18.433,2.0001 19.626,3.0051 19.924,4.3481 L18,6.2721 L18,5.0001 C18,4.4491 17.552,4.0001 17,4.0001 L15.5,4.0001 C15.5,4.5521 15.052,5.0001 14.5,5.0001 L9.5,5.0001 C8.948,5.0001 8.5,4.5521 8.5,4.0001 L7,4.0001 C6.449,4.0001 6,4.4491 6,5.0001 L6,19.0001 C6,19.5521 6.449,20.0001 7,20.0001 L17,20.0001 C17.552,20.0001 18,19.5521 18,19.0001 L18,11.9281 Z" id="path-1"></path></defs><g id="Developer-pages" stroke="none" stroke-width="1" fill="none" fill-rule="evenodd"><g id="developer-overview-page" transform="translate(-760.000000, -914.000000)"><g id="icons/sinch/menu/verification" transform="translate(756.000000, 912.000000)"><mask id="mask-2" fill="white"><use xlink:href="#path-1"></use></mask><use id="Fill-1" fill="#333F48" fill-rule="evenodd" xlink:href="#path-1"></use><g id="Colors/Primary-Colors/Stormy-Blue/100" mask="url(#mask-2)" fill="#333F48" fill-rule="evenodd"><rect id="Stormy-Blue" x="0" y="0" width="24" height="24"></rect></g></g></g></g></svg> 