<?xml version="1.0" encoding="UTF-8"?> <svg xmlns="http://www.w3.org/2000/svg" xmlns:xlink="http://www.w3.org/1999/xlink" width="20px" height="20px" viewBox="0 0 20 20"><!-- Generator: Sketch 63.1 (92452) - https://sketch.com --><title>icons/sinch/menu/billing copy 6</title><desc>Created with Sketch.</desc><defs><path d="M20,19 C20,19.542 19.542,20 19,20 L5,20 C4.458,20 4,19.542 4,19 L4,5 C4,4.458 4.458,4 5,4 L19,4 C19.542,4 20,4.458 20,5 L20,19 Z M19,2 L5,2 C3.35,2 2,3.35 2,5 L2,19 C2,20.65 3.35,22 5,22 L19,22 C20.65,22 22,20.65 22,19 L22,5 C22,3.35 20.65,2 19,2 L19,2 Z M13.719,14 L9.719,14 L10.281,10 L14.281,10 L13.719,14 Z M16.844,6 L14.843,6 L14.562,8 L10.562,8 L10.843,6 L8.843,6 L8.562,8 L6.562,8 L6.281,10 L8.281,10 L7.719,14 L5.719,14 L5.438,16 L7.438,16 L7.157,18 L9.157,18 L9.438,16 L13.438,16 L13.157,18 L15.157,18 L15.438,16 L17.437,16 L17.719,14 L15.719,14 L16.281,10 L18.281,10 L18.563,8 L16.562,8 L16.844,6 Z" id="path-1"></path></defs><g id="Developer-pages" stroke="none" stroke-width="1" fill="none" fill-rule="evenodd"><g id="developer-overview-page" transform="translate(-1043.000000, -1218.000000)"><g id="icons/sinch/menu/numbers" transform="translate(1041.000000, 1216.000000)"><mask id="mask-2" fill="white"><use xlink:href="#path-1"></use></mask><use id="Fill-1" fill="#333F48" fill-rule="evenodd" xlink:href="#path-1"></use><g id="Colors/Primary-Colors/Stormy-Blue/100" mask="url(#mask-2)" fill="#333F48" fill-rule="evenodd"><rect id="Stormy-Blue" x="0" y="0" width="24" height="24"></rect></g></g></g></g></svg> 