<?xml version="1.0" encoding="UTF-8"?> <svg xmlns="http://www.w3.org/2000/svg" xmlns:xlink="http://www.w3.org/1999/xlink" width="20px" height="20px" viewBox="0 0 20 20"><!-- Generator: Sketch 63.1 (92452) - https://sketch.com --><title>icons/sinch/menu/billing copy 13</title><desc>Created with Sketch.</desc><defs><path d="M20,12 C20,7.589 16.411,4 12,4 C7.589,4 4,7.589 4,12 C4,13.507 4.43,14.983 5.244,16.268 L5.751,17.069 L5.451,17.971 L5.162,18.838 L6.03,18.549 L6.93,18.248 L7.732,18.757 C9.017,19.57 10.493,20 12,20 C16.411,20 20,16.411 20,12 M22,12 C22,17.522 17.522,22 12,22 C10.035,22 8.208,21.425 6.662,20.446 L2,22 L3.554,17.338 C2.575,15.792 2,13.965 2,12 C2,6.477 6.477,2 12,2 C17.522,2 22,6.477 22,12 M17.09,14.126 C17.26,14.283 17.12,15.181 16.868,15.547 C16.48,16.114 15.375,16.599 14.649,16.524 C14.118,16.468 12.865,16.054 12.051,15.665 C11.007,15.164 9.906,14.248 9.014,13.128 C8.505,12.491 7.992,11.715 7.77,11.253 C7.47,10.625 7.361,10.141 7.391,9.583 C7.404,9.343 7.448,9.056 7.482,8.946 C7.657,8.393 8.131,7.73 8.475,7.56 C8.627,7.486 8.74,7.469 9.11,7.468 C9.545,7.468 9.566,7.473 9.68,7.586 C9.753,7.665 9.954,8.092 10.241,8.781 C10.484,9.374 10.685,9.879 10.685,9.906 C10.685,10.028 10.441,10.416 10.163,10.743 C9.971,10.965 9.858,11.135 9.858,11.196 C9.858,11.253 9.998,11.514 10.171,11.771 C10.594,12.404 11.372,13.188 11.977,13.59 C12.451,13.903 13.295,14.313 13.465,14.313 C13.591,14.313 13.822,14.086 14.292,13.494 C14.483,13.254 14.653,13.08 14.718,13.067 C14.775,13.049 14.915,13.071 15.027,13.115 C15.354,13.241 17.003,14.048 17.09,14.126" id="path-1"></path></defs><g id="Developer-pages" stroke="none" stroke-width="1" fill="none" fill-rule="evenodd"><g id="developer-overview-page" transform="translate(-473.000000, -914.000000)"><g id="icons/sinch/menu/wa" transform="translate(471.000000, 912.000000)"><mask id="mask-2" fill="white"><use xlink:href="#path-1"></use></mask><use id="Fill-1" fill="#333F48" fill-rule="evenodd" xlink:href="#path-1"></use><g id="Colors/Primary-Colors/Stormy-Blue/100" mask="url(#mask-2)" fill="#333F48" fill-rule="evenodd"><rect id="Stormy-Blue" x="0" y="0" width="24" height="24"></rect></g></g></g></g></svg> 