<?xml version="1.0" encoding="UTF-8"?> <svg xmlns="http://www.w3.org/2000/svg" xmlns:xlink="http://www.w3.org/1999/xlink" width="70px" height="70px" viewBox="0 0 70 70"><!-- Generator: Sketch 63.1 (92452) - https://sketch.com --><title>icons/sinch/base/Product Icon</title><desc>Created with Sketch.</desc><defs><circle id="path-1" cx="35" cy="35" r="34.1052632"></circle><path d="M45.545,12 C47.451,12 49,13.538 49,15.428 L49,38.572 C49,40.463 47.45,42.001 45.545,42.001 L27.743,42.001 L17.91,47.482 L17.91,42 L14.454,42 C12.549,42 11,40.462 11,38.571 L11,15.428 C11,13.538 12.55,12 14.455,12 L45.545,12 Z M45.544,13.714 L14.454,13.714 C13.501,13.714 12.726,14.483 12.726,15.428 L12.726,38.572 C12.726,39.518 13.501,40.287 14.454,40.287 L19.635,40.287 L19.635,44.554 L27.29,40.287 L45.544,40.287 C46.497,40.287 47.272,39.517 47.272,38.572 L47.272,15.428 C47.272,14.483 46.497,13.714 45.544,13.714 Z M29,37.482 L29,37.368 L28.999516,37.3497174 C28.8747333,36.07825 26.9655667,35.027 24.72,35.027 L18.72,35.027 L18.72,19.482 L24.72,19.482 C26.9257889,19.482 28.8185757,20.2546166 29.8604595,21.4330734 C30.9014243,20.2546166 32.7942111,19.482 35,19.482 L41,19.482 L41,35.027 L35,35.027 C32.7209962,35.027 30.7884852,36.1097899 30.7161015,37.4066587 C30.7196731,37.4319718 30.72,37.4574551 30.72,37.483 L29.006,37.483 L29.006,37.482 L29,37.482 Z M30.714,34.593 C31.796,33.848 33.304,33.391 35,33.391 L39.286,33.391 L39.286,21.118 L35,21.118 C32.7215828,21.118 30.7894801,22.2002326 30.7161578,23.4966573 C30.7196817,23.5216643 30.72,23.5468022 30.72,23.572 L30.7140004,23.5719925 L30.714,34.593 Z M24.72,21.118 L20.434,21.118 L20.434,33.392 L24.72,33.392 C26.4123923,33.392 27.9205287,33.8468186 29.0014611,34.5909251 L29,23.572 L29.002,23.497 L28.999516,23.4397207 C28.8747333,22.1683156 26.9655667,21.118 24.72,21.118 Z" id="path-3"></path></defs><g id="Developer-pages" stroke="none" stroke-width="1" fill="none" fill-rule="evenodd"><g id="developer-overview-page" transform="translate(-304.000000, -500.000000)"><g id="Group-5" transform="translate(162.000000, 500.000000)"><g id="icons/sinch/base/Product-Icon" transform="translate(142.000000, 0.000000)"><mask id="mask-2" fill="white"><use xlink:href="#path-1"></use></mask><use id="Mask" fill="#B8DDE1" fill-rule="nonzero" xlink:href="#path-1"></use><g id="Icon_Base_Color" mask="url(#mask-2)"><g transform="translate(-2.894737, -2.894737)"><rect id="Ash-Blue" fill="#C9ECF9" fill-rule="evenodd" x="0" y="0" width="75.7894737" height="75.7894737"></rect><g id="icons/sinch/Other/Documentation_Icon" fill="none" transform="translate(8.000000, 8.000000)"><mask id="mask-4" fill="white"><use xlink:href="#path-3"></use></mask><use id="Mask" fill="#333F48" fill-rule="nonzero" xlink:href="#path-3"></use><g id="Colors/Primary-Colors/Stormy-Blue/100" mask="url(#mask-4)" fill="#333F48" fill-rule="evenodd"><g transform="translate(-6.000000, -6.000000)" id="Stormy-Blue"><rect x="0" y="0" width="72" height="72"></rect></g></g></g></g></g></g></g></g></g></svg> 