<?xml version="1.0" encoding="UTF-8"?> <svg xmlns="http://www.w3.org/2000/svg" xmlns:xlink="http://www.w3.org/1999/xlink" width="20px" height="19px" viewBox="0 0 20 19"><!-- Generator: Sketch 63.1 (92452) - https://sketch.com --><title>icons/sinch/menu/billing copy 9</title><desc>Created with Sketch.</desc><defs><path d="M6,15 L16,15 L16,13 L6,13 L6,15 Z M6,12 L18,12 L18,10 L6,10 L6,12 Z M6,9 L18,9 L18,7 L6,7 L6,9 Z M20,16 C20,16.552 19.552,17 19,17 L11.25,17 L10.719,17 L10.258,17.264 L8,18.554 L8,17 L6,17 L5,17 C4.449,17 4,16.552 4,16 L4,6 C4,5.449 4.449,5 5,5 L19,5 C19.552,5 20,5.449 20,6 L20,16 Z M19,3 L5,3 C3.343,3 2,4.343 2,6 L2,16 C2,17.657 3.343,19 5,19 L6,19 L6,22 L11.25,19 L19,19 C20.657,19 22,17.657 22,16 L22,6 C22,4.343 20.657,3 19,3 L19,3 Z" id="path-1"></path></defs><g id="Developer-pages" stroke="none" stroke-width="1" fill="none" fill-rule="evenodd"><g id="developer-overview-page" transform="translate(-188.000000, -915.000000)"><g id="Group-7" transform="translate(162.000000, 888.000000)"><g id="icons/sinch/menu/sms" transform="translate(24.000000, 24.000000)"><mask id="mask-2" fill="white"><use xlink:href="#path-1"></use></mask><use id="Fill-1" fill="#333F48" fill-rule="evenodd" xlink:href="#path-1"></use><g id="Colors/Primary-Colors/Stormy-Blue/100" mask="url(#mask-2)" fill="#333F48" fill-rule="evenodd"><rect id="Stormy-Blue" x="0" y="0" width="24" height="24"></rect></g></g></g></g></g></svg> 