<?xml version="1.0" encoding="UTF-8"?> <svg xmlns="http://www.w3.org/2000/svg" xmlns:xlink="http://www.w3.org/1999/xlink" width="20px" height="23px" viewBox="0 0 20 23"><!-- Generator: Sketch 63.1 (92452) - https://sketch.com --><title>icons/sinch/menu/billing copy 5</title><desc>Created with Sketch.</desc><defs><path d="M22,2.9998 L18.536,0.9998 L12.536,11.3928 L12.536,15.3928 L16,13.3928 L22,2.9998 Z M21.62,5.6578 C21.854,6.0848 22,6.5678 22,7.0898 L22,17.0898 C22,18.7478 20.657,20.0898 19,20.0898 L11.25,20.0898 L6,23.0898 L6,20.0898 L5,20.0898 C3.343,20.0898 2,18.7478 2,17.0898 L2,7.0898 C2,5.4338 3.343,4.0898 5,4.0898 L15.597,4.0898 L14.442,6.0898 L5,6.0898 C4.449,6.0898 4,6.5388 4,7.0898 L4,17.0898 C4,17.6418 4.449,18.0898 5,18.0898 L6,18.0898 L8,18.0898 L8,19.6438 L10.258,18.3538 L10.719,18.0898 L11.25,18.0898 L19,18.0898 C19.552,18.0898 20,17.6418 20,17.0898 L20,8.4638 L21.62,5.6578 Z" id="path-1"></path></defs><g id="Developer-pages" stroke="none" stroke-width="1" fill="none" fill-rule="evenodd"><g id="developer-overview-page" transform="translate(-188.000000, -1521.000000)"><g id="icons/sinch/menu/mc" transform="translate(186.000000, 1520.000000)"><mask id="mask-2" fill="white"><use xlink:href="#path-1"></use></mask><g id="Combined-Shape"></g><g id="Colors/Primary-Colors/Stormy-Blue/100" mask="url(#mask-2)" fill="#333F48" fill-rule="evenodd"><rect id="Stormy-Blue" x="0" y="0" width="24" height="24"></rect></g></g></g></g></svg> 